<?xml version="1.0" encoding="UTF-8"?><svg id="Layer_1" xmlns="http://www.w3.org/2000/svg" viewBox="0 0 1019.39 644.92"><defs><style>.cls-1{fill:#e5312b;}.cls-2{fill:#122a42;}</style></defs><g><path class="cls-2" d="M215.76,576.33l-62.29-102.56h51.75l33.72,59.71,33.95-59.71h50.81l-62.29,101.86v62.05h-45.66v-61.35Z"/><path class="cls-2" d="M327.33,473.76h84.07c20.61,0,35.12,5.15,44.72,14.75,6.56,6.56,10.54,15.22,10.54,26.46v.47c0,18.97-10.77,30.21-25.29,36.53,19.9,6.56,32.55,17.8,32.55,40.04v.47c0,28.1-22.95,45.19-62.05,45.19h-84.53v-163.92Zm72.83,65.33c13.82,0,21.54-4.68,21.54-14.28v-.47c0-8.9-7.03-14.05-20.61-14.05h-29.5v28.8h28.57Zm6.56,62.05c13.82,0,21.78-5.39,21.78-14.99v-.47c0-8.9-7.03-14.75-22.25-14.75h-34.66v30.21h35.13Z"/><path class="cls-2" d="M485.91,473.76h42.38l67.44,86.64v-86.64h44.96v163.92h-39.81l-70.01-89.92v89.92h-44.96v-163.92Z"/><path class="cls-2" d="M668.85,473.76h45.66v163.92h-45.66v-163.92Z"/><path class="cls-2" d="M777.85,513.57h-49.17v-39.81h143.78v39.81h-49.17v124.11h-45.43v-124.11Z"/><path class="cls-2" d="M901.75,576.33l-62.29-102.56h51.75l33.72,59.71,33.95-59.71h50.81l-62.29,101.86v62.05h-45.66v-61.35Z"/><path class="cls-1" d="M90.66,637.68c-46.16,0-80.97-35.95-80.97-83.61s33.29-80.3,80.97-80.3h47.84v36.53h-38.18c-24.91,0-43,19.99-43,45.54s18.08,45.32,43,45.32h88.52v36.53H90.66Z"/></g><g><path class="cls-2" d="M744.84,295.38c-.13-1.86-.3-3.78-.5-5.77-.1-.99-.2-1.94-.31-2.84-2.15-18.33-6.49-22-19.38-32.91-2.87-2.43-6.12-5.19-9.93-8.58-18.24-16.31-13.02-32.96-11.5-36.61,3.39-2.43,20.01-10.02,12.15-27.47-5.02-11.14-15.07-16.98-18.71-19.64-2.36-6.12-12.41-35.09-19.16-46.76-7.24-12.49-39.54-29.26-60.92-40.35l-4.62-2.4c-3.27-1.7-9.13-6.43-16.56-12.4-26.46-21.3-70.73-56.96-111.19-51.92-16.45,2.04-30.6,10.8-42.06,26.02-26.36,34.98-43.8,84.27-54.74,125.46h-14.65v44.88h-15.27v43.69h43.69v-35.71h16v45.08h-23.08v46.17h46.17v-21.07h17.07v34.18h-27.1v27.1h27.1v-20.65h14.93v50.35h49.86v7.97h-23.95v36.56h102.68c-1.66-20.79-2.45-36.4-2.73-42.57,9.61,.71,41.09,3.36,62.48,9.21,26.62,7.27,45.55,4.83,51.93-6.71,4.68-8.48,7.44-19.36,8.3-23.07,13.33-6.46,15.81-16.9,16.27-20.71,6.92-5.31,9.31-17.31,7.75-38.53Zm-324.1-103.24h-18.58v-18.58h18.58v18.58Zm23.46,65v9.29h-18.58v-18.58h18.58v9.29Zm13.13-34.38v-13.94h18.58v18.59h-18.58v-4.64Zm32.38,86.33h-18.58v-18.59h18.58v18.59Zm13.79-16.3h8.8v10.01h-8.8v-10.01Zm16.49,59.01h-25.39v-25.39h25.39v25.39Zm-2.87-108.83v-10.01h10.01v10.01h-10.01Zm15.25,167.08h-18.59v-18.58h18.59v18.58Zm15.31-78.64h-10.01v-10.01h10.01v10.01Zm20.61,40.19v2.59h-18.59v-18.59h18.59v15.99Zm22.31-164.97c3.24,6.13,11.52,4.42,11.52,4.42l.64,7.97c-16.42,2.02-23.97-9.27-22.73-30.08,1.23-20.81,9.12-30.37,18.85-30.57,9.32-.19,11.67,10.52,11.87,16.22l-8.33,2.19s-.09-5.12-1.96-7.28c-2.17-2.51-8.43-2.98-11.23,7.91-2.8,10.89-2.19,22.5,1.36,29.23Zm126.9,143.79l-1.22,.54s-24.09,9.6-37.5,8.1c-16.96-1.9-29.22-15.31-34.02-23.76-.74-1.3-1.51-3.17-2.2-5.47,26.9,6.13,48.18,7.85,63.52,7.85,12.33,0,20.81-1.1,25.34-1.9-1.09,3.9-4.33,10.36-13.93,14.63Zm16.04-20.38c-4.1,.73-40.84,6.42-92.43-6.64-2.23-13.78-.49-34.82,17.59-49.23,25.06-19.96-29.82-44.56-32.31-62.85-2.49-18.28,20.91-65.17,24.55-67.19,3.64-2.02,46.97,32.76,53.25,37.59,3.76,2.89,5.17,6.63,5.03,9.68-.29,6.22-8.46,9.87-8.52,9.9-8.52,4.03-12.24,27.47,10.56,47.86,3.85,3.45,7.14,6.22,10.03,8.68,10.02,8.48,14.09,11.93,16.29,21.65-3.18-3.34-7.07-6.95-9.62-7.68-2.17-.62-4.33-.07-5.91,1.49-2.17,2.16-3.08,6.15-2.15,9.48,.81,2.88,4.81,5.44,13.1,10.18,2.63,1.51,5.57,3.19,6.74,4.15,1.22,18.4-.81,29.18-6.2,32.92Z"/><path class="cls-2" d="M668.06,193.35l-3.71-1.21,.31,3.9c.04,.56,1.18,13.74,9.51,17.16,1.24,.51,2.45,.74,3.62,.74,5.54,0,10.01-5.11,12.02-8.7l1.42-2.53-2.67-1.14c-.62-.26-15.14-6.47-20.5-8.21Z"/><rect class="cls-2" x="382.87" y="319.26" width="39.69" height="39.69"/><rect class="cls-2" x="345" y="267.13" width="37.7" height="37.7"/><rect class="cls-2" x="325.93" y="321.64" width="23.47" height="23.47"/><rect class="cls-2" x="316.58" y="389.47" width="24.67" height="24.67"/><rect class="cls-2" x="422.56" y="386.27" width="31.49" height="31.49"/><rect class="cls-2" x="391.17" y="368.95" width="20.01" height="20.01"/><rect class="cls-2" x="299.92" y="358.95" width="20.01" height="20.01"/><rect class="cls-2" x="361.86" y="396.79" width="20.01" height="20.01"/><rect class="cls-2" x="274.32" y="401.81" width="14.07" height="14.07"/><rect class="cls-2" x="281.36" y="314.61" width="14.07" height="14.07"/><rect class="cls-2" x="387.06" y="430.43" width="14.07" height="14.07"/><rect class="cls-2" x="466.17" y="396.79" width="20.98" height="20.98"/><rect class="cls-2" x="435.25" y="359.89" width="10.01" height="10.01"/><rect class="cls-2" x="294.92" y="252.14" width="10.01" height="10.01"/><rect class="cls-2" x="347.72" y="358.95" width="19.54" height="19.54"/></g></svg>