<?xml version="1.0" encoding="UTF-8"?><svg id="Layer_1" xmlns="http://www.w3.org/2000/svg" viewBox="0 0 1015.98 943.68"><defs><style>.cls-1{fill:#122a42;}</style></defs><path class="cls-1" d="M1007.45,619.58c-.28-3.94-.65-8.02-1.07-12.26-.21-2.11-.43-4.13-.66-6.04-4.57-38.94-13.79-46.75-41.18-69.94-6.1-5.17-13.01-11.02-21.09-18.24-38.76-34.65-27.68-70.03-24.45-77.79,7.21-5.16,42.52-21.29,25.82-58.37-10.66-23.66-32.03-36.09-39.77-41.73-5.02-13.02-26.38-74.58-40.73-99.36-15.38-26.55-84.03-62.18-129.45-85.76l-9.82-5.11c-6.94-3.62-19.4-13.65-35.18-26.36C633.65,73.36,539.56-2.41,453.59,8.29c-34.96,4.35-65.03,22.95-89.39,55.29-56.01,74.35-93.08,179.07-116.33,266.61h-31.14v95.38h-32.44v92.84h92.84v-75.9h34v95.8h-49.05v98.11h98.11v-44.77h36.27v72.63h-57.6v57.6h57.6v-43.88h31.73v107.01h105.96v16.94h-50.9v77.69h218.2c-3.52-44.17-5.21-77.34-5.81-90.47,20.42,1.5,87.33,7.13,132.77,19.57,56.57,15.46,96.8,10.27,110.35-14.25,9.96-18.02,15.81-41.14,17.63-49.04,28.33-13.73,33.6-35.91,34.58-44.01,14.7-11.28,19.79-36.79,16.47-81.88ZM318.71,400.18h-39.49v-39.5h39.49v39.5Zm49.84,138.13v19.75h-39.5v-39.49h39.5v19.75Zm27.9-73.07v-29.63h39.49v39.5h-39.49v-9.86Zm68.8,183.46h-39.49v-39.5h39.49v39.5Zm29.31-34.65h18.71v21.27h-18.71v-21.27Zm35.05,125.41h-53.95v-53.95h53.95v53.95Zm-6.1-231.27v-21.27h21.27v21.27h-21.27Zm32.41,355.07h-39.5v-39.49h39.5v39.49Zm32.54-167.13h-21.27v-21.27h21.27v21.27Zm43.8,85.4v5.51h-39.5v-39.5h39.5v33.98Zm47.4-350.58c6.89,13.03,24.49,9.38,24.49,9.38l1.37,16.94c-34.89,4.29-50.94-19.7-48.31-63.93,2.62-44.22,19.37-64.53,40.06-64.96,19.8-.41,24.8,22.35,25.23,34.48l-17.69,4.65s-.19-10.89-4.17-15.48c-4.62-5.33-17.91-6.32-23.86,16.8-5.95,23.14-4.66,47.82,2.89,62.11Zm269.67,305.57l-2.6,1.16s-51.19,20.41-79.69,17.21c-36.04-4.04-62.09-32.53-72.29-50.49-1.56-2.76-3.2-6.73-4.67-11.62,57.16,13.03,102.38,16.68,134.99,16.68,26.19,0,44.22-2.34,53.85-4.03-2.33,8.29-9.21,22.02-29.6,31.09Zm34.08-43.32c-8.71,1.55-86.79,13.64-196.41-14.11-4.75-29.29-1.04-74,37.38-104.61,53.25-42.42-63.37-94.69-68.67-133.56-5.29-38.86,44.44-138.5,52.17-142.78,7.73-4.28,99.81,69.61,113.16,79.87,8,6.15,10.98,14.1,10.68,20.58-.61,13.22-17.97,20.98-18.11,21.05-18.11,8.57-26.01,58.38,22.45,101.71,8.19,7.32,15.16,13.23,21.32,18.44,21.29,18.03,29.94,25.36,34.62,46.02-6.77-7.11-15.02-14.77-20.45-16.32-4.62-1.31-9.19-.16-12.55,3.18-4.62,4.59-6.54,13.06-4.57,20.14,1.72,6.13,10.21,11.55,27.83,21.64,5.6,3.21,11.83,6.78,14.32,8.81,2.59,39.1-1.73,62.02-13.18,69.95Z"/><path class="cls-1" d="M844.28,402.76l-7.89-2.58,.65,8.28c.09,1.19,2.5,29.2,20.22,36.47,2.64,1.09,5.21,1.56,7.68,1.56,11.77,0,21.28-10.85,25.55-18.48l3.01-5.38-5.67-2.42c-1.31-.56-32.18-13.75-43.56-17.46Z"/><rect class="cls-1" x="238.23" y="670.32" width="84.35" height="84.35"/><rect class="cls-1" x="157.75" y="559.54" width="80.12" height="80.12"/><rect class="cls-1" x="117.22" y="675.39" width="49.87" height="49.87"/><rect class="cls-1" x="97.35" y="819.53" width="52.43" height="52.44"/><rect class="cls-1" x="322.57" y="812.74" width="66.92" height="66.92"/><rect class="cls-1" x="255.87" y="775.93" width="42.53" height="42.53"/><rect class="cls-1" x="61.96" y="754.67" width="42.53" height="42.53"/><rect class="cls-1" x="193.59" y="835.08" width="42.53" height="42.53"/><rect class="cls-1" x="7.56" y="845.75" width="29.89" height="29.89"/><rect class="cls-1" x="22.5" y="660.44" width="29.89" height="29.89"/><rect class="cls-1" x="247.13" y="906.57" width="29.89" height="29.89"/><rect class="cls-1" x="415.25" y="835.08" width="44.58" height="44.58"/><rect class="cls-1" x="349.55" y="756.68" width="21.27" height="21.27"/><rect class="cls-1" x="51.32" y="527.69" width="21.26" height="21.27"/><rect class="cls-1" x="163.52" y="754.67" width="41.53" height="41.53"/></svg>