<?xml version="1.0" encoding="UTF-8"?><svg id="Layer_1" xmlns="http://www.w3.org/2000/svg" viewBox="0 0 1016.96 177.26"><defs><style>.cls-1{fill:#e6e6e6;}.cls-2{fill:#e5312b;}</style></defs><path class="cls-1" d="M214.55,109.23L152.26,6.67h51.75l33.72,59.71L271.68,6.67h50.81l-62.29,101.86v62.05h-45.66v-61.35Z"/><path class="cls-1" d="M326.12,6.67h84.07c20.61,0,35.12,5.15,44.72,14.75,6.56,6.56,10.54,15.22,10.54,26.46v.47c0,18.97-10.77,30.21-25.29,36.53,19.9,6.56,32.55,17.8,32.55,40.04v.47c0,28.1-22.95,45.19-62.05,45.19h-84.53V6.67Zm72.83,65.33c13.82,0,21.54-4.68,21.54-14.28v-.47c0-8.9-7.03-14.05-20.61-14.05h-29.5v28.8h28.57Zm6.56,62.05c13.82,0,21.78-5.39,21.78-14.99v-.47c0-8.9-7.03-14.75-22.25-14.75h-34.66v30.21h35.13Z"/><path class="cls-1" d="M484.7,6.67h42.38l67.44,86.64V6.67h44.96V170.59h-39.81l-70.01-89.92v89.92h-44.96V6.67Z"/><path class="cls-1" d="M667.64,6.67h45.66V170.59h-45.66V6.67Z"/><path class="cls-1" d="M776.64,46.48h-49.17V6.67h143.78V46.48h-49.17v124.11h-45.43V46.48Z"/><path class="cls-1" d="M900.53,109.23L838.24,6.67h51.75l33.72,59.71,33.95-59.71h50.81l-62.29,101.86v62.05h-45.66v-61.35Z"/><path class="cls-2" d="M89.45,170.59c-46.16,0-80.97-35.95-80.97-83.61S41.78,6.67,89.45,6.67h47.84V43.2h-38.18c-24.91,0-43,19.99-43,45.54s18.08,45.32,43,45.32h88.52v36.53H89.45Z"/></svg>